<svg id="logo-large" data-name="Layer 1" xmlns="http://www.w3.org/2000/svg" viewBox="0 0 1261.07 132.34"><defs><style>.cls-1{isolation:isolate}.cls-2{fill:#211f29}.cls-3{fill:#008285}</style></defs><title>logo-large</title><g id="_03-Desktop" data-name="03-Desktop"><g id="_01-Home" data-name="01-Home"><g id="Intro"><g id="Large-Logo" class="cls-1"><g class="cls-1"><path class="cls-2" d="M84.14 37.3H47l-6 20q1.33-.16 2.54-.23c.82-.07 1.56-.07 2.24-.07q17.58 0 28.83 11.88T85.94 99.1q0 19.06-12.81 31.41t-32.27 12.34q-24 0-37.81-22.5l13.75-11.64q5.7 9.69 11.48 13.67a24.66 24.66 0 0 0 14.14 3.91 24.55 24.55 0 0 0 18.36-7.66 26.92 26.92 0 0 0 7.42-19.14q0-11.56-7.34-18.91A24.52 24.52 0 0 0 42.5 73q-12.27 0-21.17 10.7h-6l19-63.44h49.81zM135.65 145l-13.36-9.92 28.83-39.3q-2.34.31-4 .47t-2.66.16q-14.61 0-25.31-11.17a37.24 37.24 0 0 1-10.62-26.72 38.76 38.76 0 0 1 11.8-28.44 38.8 38.8 0 0 1 28.44-11.87A40 40 0 0 1 177.44 30q12.19 11.64 12.19 27.5 0 14.06-11.87 30.39zm-9.37-87.81a22.28 22.28 0 0 0 6.64 16.41 22.81 22.81 0 0 0 39-16.09A22.81 22.81 0 0 0 149 34.73a22.81 22.81 0 0 0-22.73 22.5z" transform="translate(-3.05 -12.7)"></path></g><g class="cls-1"><path class="cls-3" d="M261.1 37.38h-48.36v29h47v17.1h-47v40.31h48.36v17.11h-66.57V20.27h66.57z" transform="translate(-3.05 -12.7)"></path></g><g class="cls-1"><path class="cls-2" d="M345.22 37.3H308l-5.94 20q1.33-.16 2.54-.23c.81-.05 1.55-.08 2.23-.08q17.58 0 28.83 11.88T347 99.1q0 19.06-12.81 31.41t-32.27 12.34q-24 0-37.81-22.5l13.75-11.64q5.7 9.69 11.48 13.67a26.52 26.52 0 0 0 32.5-3.75 26.92 26.92 0 0 0 7.42-19.14q0-11.56-7.34-18.91A24.52 24.52 0 0 0 303.58 73q-12.27 0-21.17 10.7h-6l19-63.44h49.84zM396.73 145l-13.36-9.92 28.83-39.3q-2.34.31-4 .47t-2.66.16q-14.61 0-25.31-11.17a37.24 37.24 0 0 1-10.62-26.72 38.76 38.76 0 0 1 11.8-28.44 38.8 38.8 0 0 1 28.44-11.87A40 40 0 0 1 438.52 30q12.19 11.64 12.19 27.5 0 14.06-11.87 30.39zm-9.37-87.81A22.28 22.28 0 0 0 394 73.63a22.81 22.81 0 0 0 39-16.09 22.81 22.81 0 0 0-22.89-22.81 22.81 22.81 0 0 0-22.73 22.5zM558.57 37.38V140.9h-18.2V37.38h-27.74V20.27h73.59v17.11zM621.64 67.46h52V20.27h18.2V140.9h-18.2V84.57h-52v56.33h-18.2V20.27h18.2zM788.3 37.38h-48.36v29h47v17.1h-47v40.31h48.36v17.11h-66.56V20.27h66.56zM884 111.6h-51.61l-13.44 29.3h-19.61L859 12.7l57.58 128.2h-19.9zm-7.42-17.11l-17.89-41-18.69 41zM959.21 37.38V140.9H941V37.38h-27.73V20.27h73.59v17.11zM1070.63 37.38h-48.36v29h47v17.1h-47v40.31h48.36v17.11h-66.56V20.27h66.56zM1136.36 89.49l37.34 51.41h-22.27L1117 91.52h-3.28v49.38h-18.2V20.27h21.33q23.91 0 34.53 9 11.72 10 11.72 26.41a34.27 34.27 0 0 1-7.34 22 32.74 32.74 0 0 1-19.4 11.81zm-22.66-13.83h5.78q25.86 0 25.86-19.77 0-18.52-25.16-18.52h-6.48zM1261 38.24L1246.23 47q-4.14-7.19-7.89-9.37a18.42 18.42 0 0 0-10.08-2.5 18.62 18.62 0 0 0-12.58 4.3 13.32 13.32 0 0 0-5 10.63q0 8.83 13.13 14.22l12 4.92q14.69 5.94 21.48 14.49t6.8 21q0 16.64-11.09 27.5t-27.73 10.94q-15.7 0-25.94-9.3-10.08-9.3-12.58-26.17l18.44-4.06q1.25 10.63 4.38 14.69 5.63 7.81 16.41 7.81a19 19 0 0 0 14.14-5.7 19.73 19.73 0 0 0 5.63-14.45 20.3 20.3 0 0 0-1-6.45 16.4 16.4 0 0 0-3-5.39 24.4 24.4 0 0 0-5.35-4.61 51.74 51.74 0 0 0-7.81-4.1l-11.64-4.84q-24.79-10.56-24.79-30.68a29.05 29.05 0 0 1 10.39-22.73q10.39-9.22 25.86-9.22 20.86 0 32.59 20.31z" transform="translate(-3.05 -12.7)"></path></g></g></g></g></g></svg>